<svg width="256" height="256" viewBox="0 0 256 256" fill="none" xmlns="http://www.w3.org/2000/svg">
<path d="M106.396 211.676H169.24L256 96.4014H106.396V211.676Z" fill="#FD7369"/>
<path d="M0.0301066 144.439L0.34189 148.847C5.1194 203.571 50.6829 246.112 106.218 246.112V142.262L106.219 142.26V43.316C106.219 61.5758 91.0998 76.2767 72.7913 75.3958C56.2819 74.6014 42.854 60.6844 42.4953 44.0295C42.1628 28.5906 52.6503 15.5915 66.837 12.1333C67.0035 12.0927 66.9617 11.8618 66.7918 11.8844C29.099 16.8845 0 49.3741 0 88.7302V94.2541C0 94.6565 0.0240671 95.0531 0.0301066 95.4539V134.666V144.439Z" fill="#190E29"/>
<path d="M106.219 246.109C147.531 246.109 181.021 212.596 181.021 171.255C181.021 129.915 147.531 96.4014 106.219 96.4014V246.109Z" fill="#190E29"/>
<path d="M31.417 171.255C31.417 212.596 64.9068 246.109 106.219 246.109V96.4014C64.9068 96.4014 31.417 129.915 31.417 171.255Z" fill="#AA64E6"/>
<path d="M106.219 96.4048L148.108 53.9652L106.219 11.2002V96.4048Z" fill="#FDAB04"/>
<path d="M74.0534 75.5745C91.8173 75.5745 106.218 61.1638 106.218 43.3873V11.2002H74.0534C56.289 11.2002 41.8887 25.6108 41.8887 43.3873C41.8887 61.1638 56.289 75.5745 74.0534 75.5745Z" fill="white"/>
<path d="M74.4479 33.4043C79.8185 33.4043 84.1721 37.761 84.1721 43.1352C84.1721 48.5096 79.8185 52.8663 74.4479 52.8663C69.0772 52.8663 64.7236 48.5096 64.7236 43.1352C64.7236 37.761 69.0772 33.4043 74.4479 33.4043Z" fill="#190E29"/>
</svg>
