<svg width="140" height="128" viewBox="0 0 140 128" fill="none" xmlns="http://www.w3.org/2000/svg">
<path d="M57.942 109.177H92.1659L139.414 46.3995H57.942V109.177Z" fill="#FD7369"/>
<path d="M0.0163956 72.5606L0.186188 74.9607C2.78795 104.763 27.6012 127.93 57.845 127.93V71.375L57.8451 71.3735V17.4901C57.8451 27.4342 49.6117 35.4401 39.6411 34.9603C30.6503 34.5277 23.3377 26.9487 23.1423 17.8787C22.9613 9.4709 28.6726 2.39179 36.3985 0.508502C36.4892 0.486369 36.4664 0.360647 36.3739 0.37291C15.8469 3.09592 0 20.7893 0 42.2221V45.2303C0 45.4495 0.0131066 45.6654 0.0163956 45.8837V67.2382V72.5606Z" fill="#190E29"/>
<path d="M57.8451 127.928C80.343 127.928 98.5811 109.677 98.5811 87.1639C98.5811 64.6504 80.343 46.3995 57.8451 46.3995V127.928Z" fill="#190E29"/>
<path d="M17.1091 87.1639C17.1091 109.677 35.3472 127.928 57.8451 127.928V46.3995C35.3472 46.3995 17.1091 64.6504 17.1091 87.1639Z" fill="#AA64E6"/>
<path d="M57.8451 46.4012L80.6573 23.2892L57.8451 0V46.4012Z" fill="#FDAB04"/>
<path d="M40.3286 35.0573C50.0026 35.0573 57.8451 27.2095 57.8451 17.5287V0H40.3286C30.6543 0 22.8122 7.84782 22.8122 17.5287C22.8122 27.2095 30.6543 35.0573 40.3286 35.0573Z" fill="white"/>
<path d="M40.5432 12.0919C43.468 12.0919 45.8389 14.4645 45.8389 17.3913C45.8389 20.318 43.468 22.6906 40.5432 22.6906C37.6184 22.6906 35.2475 20.318 35.2475 17.3913C35.2475 14.4645 37.6184 12.0919 40.5432 12.0919Z" fill="#190E29"/>
</svg>
