<svg width="640" height="160" viewBox="0 0 640 160" fill="none" xmlns="http://www.w3.org/2000/svg">
<path d="M221.375 105.326C221.375 113.573 215.733 122.427 202.537 122.427H177.017V62.6185H200.715C211.393 62.6185 218.249 69.0419 218.249 78.0701C218.249 82.4965 216.513 88.4857 210.003 90.4821C217.642 91.7842 221.375 98.5553 221.375 105.326ZM200.021 73.2953H189.083V86.4028H200.021C203.839 86.4028 206.184 83.8851 206.184 79.8058C206.184 76.1602 204.274 73.2953 200.021 73.2953ZM200.802 111.75C206.444 111.75 209.222 108.104 209.222 104.111C209.222 100.379 206.704 96.4724 200.976 96.4724H189.083V111.75H200.802Z" fill="#190E29"/>
<path d="M227.71 122.427V59.8407H239.08V122.427H227.71Z" fill="#190E29"/>
<path d="M278.402 81.8887H289.773V122.427H278.402V116.611C275.711 120.778 270.502 123.468 265.033 123.468C253.836 123.468 245.502 114.788 245.502 102.201C245.502 89.6148 253.662 80.8473 265.294 80.8473C270.502 80.8473 275.711 83.1043 278.402 87.2712V81.8887ZM278.054 102.201C278.054 96.0376 273.107 91.437 267.463 91.437C261.561 91.437 257.134 96.2983 257.134 102.201C257.134 107.844 261.561 112.878 267.551 112.878C273.28 112.878 278.054 108.017 278.054 102.201Z" fill="#190E29"/>
<path d="M296.108 102.028C296.108 89.1812 306.525 80.8473 318.331 80.8473C325.708 80.8473 331.611 84.2322 335.431 89.5283L326.837 95.5175C325.014 92.9998 321.629 91.437 318.417 91.437C311.993 91.437 307.653 96.1253 307.653 102.028C307.653 108.017 311.993 112.878 318.417 112.878C321.629 112.878 325.014 111.316 326.837 108.799L335.431 114.788C331.611 120.083 325.708 123.468 318.331 123.468C306.525 123.468 296.108 114.875 296.108 102.028Z" fill="#190E29"/>
<path d="M380.741 122.427H366.592L352.356 104.893V122.427H340.985V59.8407H352.356V94.3019L362.6 81.8887H377.182L361.384 99.7709L380.741 122.427Z" fill="#190E29"/>
<path d="M429.003 102.114C429.003 115.135 419.541 123.468 409.124 123.468C404.524 123.468 398.968 121.559 396.103 117.393V122.427H384.733V59.8407H396.103V86.7499C398.968 82.6707 404.524 80.8473 409.124 80.8473C419.541 80.8473 429.003 89.0935 429.003 102.114ZM417.371 102.114C417.371 96.1253 412.684 91.437 406.955 91.437C401.659 91.437 396.451 95.8646 396.451 102.114C396.451 108.278 401.399 112.878 406.955 112.878C412.684 112.878 417.371 108.017 417.371 102.114Z" fill="#190E29"/>
<path d="M432.127 67.9127C432.127 64.0941 435.426 61.1428 439.332 61.1428C443.325 61.1428 446.537 64.0941 446.537 67.9127C446.537 71.7326 443.325 74.7704 439.332 74.7704C435.426 74.7704 432.127 71.7326 432.127 67.9127ZM433.69 122.427V81.8887H445.061V122.427H433.69Z" fill="#190E29"/>
<path d="M483.514 82.1494L480.909 92.9998C478.479 91.6977 476.483 91.5247 475.093 91.5247C469.278 91.5247 465.284 96.9926 465.284 108.539V122.427H453.914V81.8887H465.198V90.5698C467.455 83.7986 472.055 80.8473 477.089 80.8473C479.26 80.8473 481.691 81.1944 483.514 82.1494Z" fill="#190E29"/>
<path d="M516.239 59.8407H527.611V122.427H516.239V117.393C513.374 121.559 507.732 123.468 503.218 123.468C492.801 123.468 483.339 115.135 483.339 102.114C483.339 89.0935 492.801 80.8473 503.218 80.8473C507.905 80.8473 513.374 82.6707 516.239 86.8364V59.8407ZM515.892 102.114C515.892 95.8646 510.683 91.437 505.389 91.437C499.659 91.437 494.884 96.1253 494.884 102.114C494.884 108.017 499.659 112.878 505.389 112.878C510.944 112.878 515.892 108.278 515.892 102.114Z" fill="#190E29"/>
<path d="M537.084 115.939C537.084 111.959 540.372 109.017 544.265 109.017C548.245 109.017 551.62 111.959 551.62 115.939C551.62 120.005 548.245 122.947 544.265 122.947C540.372 122.947 537.084 120.005 537.084 115.939Z" fill="#190E29"/>
<path d="M559.923 67.8329C559.923 64.0264 563.211 61.0845 567.104 61.0845C571.084 61.0845 574.286 64.0264 574.286 67.8329C574.286 71.6402 571.084 74.6687 567.104 74.6687C563.211 74.6687 559.923 71.6402 559.923 67.8329ZM561.48 122.168V81.7628H572.815V122.168H561.48Z" fill="#190E29"/>
<path d="M581.724 102.009C581.724 89.2041 591.933 80.725 603.44 80.725C614.948 80.725 625.156 89.2041 625.156 102.009C625.156 114.728 614.948 123.206 603.44 123.206C591.933 123.206 581.724 114.728 581.724 102.009ZM613.65 102.009C613.65 95.6927 609.064 91.2806 603.44 91.2806C597.816 91.2806 593.23 95.6927 593.23 102.009C593.23 108.238 597.816 112.651 603.44 112.651C609.064 112.651 613.65 108.238 613.65 102.009Z" fill="#190E29"/>
<path d="M72.942 125.177H107.166L154.414 62.3996H72.942V125.177Z" fill="#FD7369"/>
<path d="M15.0164 88.5605L15.1862 90.9606C17.788 120.762 42.6012 143.93 72.845 143.93V87.375L72.8451 87.3734V33.4901C72.8451 43.4341 64.6117 51.44 54.6411 50.9603C45.6503 50.5277 38.3377 42.9487 38.1423 33.8787C37.9613 25.4708 43.6726 18.3917 51.3985 16.5084C51.4892 16.4863 51.4664 16.3606 51.3739 16.3729C30.8469 19.0959 15 36.7893 15 58.222V61.2303C15 61.4494 15.0131 61.6654 15.0164 61.8837V83.2382V88.5605Z" fill="#190E29"/>
<path d="M72.8451 143.928C95.343 143.928 113.581 125.677 113.581 103.164C113.581 80.6504 95.343 62.3996 72.8451 62.3996V143.928Z" fill="#190E29"/>
<path d="M32.1091 103.164C32.1091 125.677 50.3472 143.928 72.8451 143.928V62.3996C50.3472 62.3996 32.1091 80.6504 32.1091 103.164Z" fill="#AA64E6"/>
<path d="M72.8451 62.4013L95.6573 39.2893L72.8451 16.0001V62.4013Z" fill="#FDAB04"/>
<path d="M55.3286 51.0573C65.0026 51.0573 72.8451 43.2095 72.8451 33.5287V16H55.3286C45.6543 16 37.8122 23.8478 37.8122 33.5287C37.8122 43.2095 45.6543 51.0573 55.3286 51.0573Z" fill="white"/>
<path d="M55.5432 28.0919C58.468 28.0919 60.8389 30.4645 60.8389 33.3912C60.8389 36.318 58.468 38.6906 55.5432 38.6906C52.6184 38.6906 50.2475 36.318 50.2475 33.3912C50.2475 30.4645 52.6184 28.0919 55.5432 28.0919Z" fill="#190E29"/>
</svg>
